<svg xmlns="http://www.w3.org/2000/svg" viewBox="0 0 640 640" role="img" aria-labelledby="title desc">
  <title id="title">Cafe local</title>
  <desc id="desc">Ilustracion de cafe de tueste local.</desc>
  <rect width="640" height="640" fill="#f7efe7"/>
  <rect x="160" y="220" width="250" height="220" rx="36" fill="#7b4e34"/>
  <path d="M410 256h42c39 0 70 31 70 70s-31 70-70 70h-42" fill="none" stroke="#7b4e34" stroke-width="26" stroke-linecap="round"/>
  <path d="M250 188c-18-24 0-56 0-56M322 188c-18-24 0-56 0-56M394 188c-18-24 0-56 0-56" fill="none" stroke="#c8a388" stroke-width="12" stroke-linecap="round"/>
  <ellipse cx="286" cy="318" rx="46" ry="64" fill="#e2c3a4"/>
  <path d="M286 270c18 0 30 12 30 24 0 14-11 24-30 24-18 0-30-10-30-24 0-12 12-24 30-24Z" fill="#7b4e34"/>
  <text x="320" y="540" text-anchor="middle" font-size="34" font-family="Georgia, serif" fill="#5f4334">Cafe local</text>
</svg>
