<svg xmlns="http://www.w3.org/2000/svg" viewBox="0 0 320 240" role="img" aria-label="Tomates ecológicos">
  <rect width="320" height="240" fill="#eff7df"/>
  <circle cx="110" cy="130" r="42" fill="#d63d2e"/>
  <circle cx="165" cy="112" r="40" fill="#e14a37"/>
  <circle cx="212" cy="145" r="43" fill="#cf392c"/>
  <path d="M110 94l8 10 12-4-5 12 8 9-13-2-10 9-2-13-12-5 12-5z" fill="#3d8b45"/>
  <path d="M165 78l8 10 12-4-5 12 8 9-13-2-10 9-2-13-12-5 12-5z" fill="#3d8b45"/>
  <path d="M212 109l8 10 12-4-5 12 8 9-13-2-10 9-2-13-12-5 12-5z" fill="#3d8b45"/>
  <text x="160" y="210" text-anchor="middle" font-family="Georgia, serif" font-size="22" fill="#4a5f1f">Tomates ecológicos</text>
</svg>
